<svg width="312" height="304" viewBox="0 0 312 304" fill="none" xmlns="http://www.w3.org/2000/svg">
<path d="M95.7957 82.7482C101 80.5971 105.788 76.8501 108.98 73.1725C115.433 65.6785 116.474 54.6457 114.322 45.0007C113.212 39.9353 111.269 34.9393 108.147 30.776C100.237 19.9514 86.4976 13.9839 73.175 13.0819C64.9177 12.5268 55.8972 14.8166 48.9583 19.2575C37.648 26.6127 32.5826 42.2945 38.4806 55.409C43.8929 67.4133 52.7053 65.1928 62.4197 70.5357C70.3994 74.9072 75.1873 83.789 85.1792 84.691C88.7181 84.9686 92.3956 84.2053 95.7957 82.7482Z" fill="#F4F4F4"/>
<path d="M38.5501 55.3395C43.9625 67.3438 52.7748 65.1233 62.4892 70.4663C70.4689 74.8378 75.2568 83.7195 85.2487 84.6216C88.7182 84.8991 92.3264 84.1358 95.7958 82.6787C97.8775 81.846 99.8204 80.7358 101.694 79.4868C78.4486 78.3072 51.3871 60.4049 46.6686 45.7639C43.338 35.3556 47.2237 24.8779 51.1095 17.8696C50.3462 18.286 49.6523 18.7023 48.9584 19.1186C37.7175 26.5432 32.6521 42.2251 38.5501 55.3395Z" fill="#E3E3E3"/>
<path d="M90.9384 67.8988C99.4076 67.8988 106.273 61.0331 106.273 52.5639C106.273 44.0947 99.4076 37.229 90.9384 37.229C82.4692 37.229 75.6035 44.0947 75.6035 52.5639C75.6035 61.0331 82.4692 67.8988 90.9384 67.8988Z" fill="#EBB64A"/>
<path d="M94.8936 64.8458C86.4282 64.8458 79.5587 57.9763 79.5587 49.5109C79.5587 45.4864 81.1546 41.8088 83.722 39.0332C78.9342 41.6006 75.6035 46.666 75.6035 52.564C75.6035 61.0294 82.473 67.8989 90.9384 67.8989C95.3793 67.8989 99.3345 66.0254 102.11 63.0417C99.959 64.2213 97.461 64.8458 94.8936 64.8458Z" fill="#E3A63B"/>
<path d="M102.387 53.5351C100.306 55.1311 100.583 50.3432 97.8772 46.8738C95.171 43.4044 90.4526 42.5023 92.5343 40.9064C94.6159 39.3104 98.5017 40.7676 101.208 44.237C103.983 47.7759 104.469 51.8698 102.387 53.5351Z" fill="white"/>
<path d="M227.085 18.7907C223.807 17.6106 220.135 17.7417 216.923 19.2496C210.105 22.5277 198.566 28.8216 197.123 35.181C195.091 44.3596 218.496 55.9639 241.443 75.2389C264.389 94.5139 266.881 102.25 271.011 95.6284C275.141 89.0067 291.532 71.633 278.55 51.2435C268.323 35.1154 239.017 23.1177 227.085 18.7907Z" fill="#ECB579"/>
<path d="M271.011 95.6283C273.305 91.9569 279.468 84.8763 282.156 75.8288C278.55 79.3036 274.027 82.1883 268.716 80.6804C256.194 77.1401 232.002 47.1786 213.907 35.9021C208.007 32.1651 203.221 30.9194 199.549 30.9194C198.369 32.3618 197.517 33.8041 197.189 35.2465C195.157 44.425 218.562 56.0294 241.508 75.3044C264.324 94.5138 266.88 102.25 271.011 95.6283Z" fill="#DFA164"/>
<path d="M225.643 59.3071C228.134 58.5859 230.822 58.5859 233.445 58.5204C234.1 58.5204 234.756 58.5204 235.411 58.5204C246.032 58.2581 254.686 54.9145 259.866 49.014C260.98 47.7028 261.964 46.326 262.947 44.9492C263.34 44.3591 263.734 43.7691 264.193 43.179C265.111 41.8678 266.16 40.6221 267.209 39.3765C266.75 39.0487 266.291 38.7209 265.832 38.3931C264.783 39.6387 263.799 40.8844 262.816 42.1956C262.423 42.7857 261.964 43.3757 261.57 43.9658C260.652 45.277 259.669 46.6538 258.62 47.8994C253.769 53.4721 245.508 56.6191 235.411 56.8813C234.756 56.8813 234.166 56.8813 233.51 56.8813C230.757 56.8813 228.003 56.9469 225.249 57.7336C223.741 58.1925 222.365 58.7826 221.053 59.5693C221.578 59.8972 222.037 60.2905 222.561 60.6183C223.479 60.0938 224.528 59.6349 225.643 59.3071Z" fill="#F2D0A4"/>
<path d="M213.383 44.0317C214.563 44.3595 215.743 44.6217 216.857 44.9495C222.561 46.3919 229.249 47.572 235.542 45.474C240.263 43.9005 244.196 40.688 247.737 37.3444C249.966 35.312 252.064 33.1485 254.162 31.0505C253.637 30.7883 253.178 30.4605 252.654 30.1982C250.687 32.2306 248.655 34.1975 246.622 36.0987C243.213 39.2457 239.476 42.3926 235.018 43.835C229.183 45.7363 222.758 44.6217 217.251 43.2449C216.071 42.9827 214.956 42.6549 213.776 42.3271C208.99 41.0814 204.007 39.7702 198.959 39.7702C198.631 39.7702 198.304 39.7702 197.976 39.7702C198.304 40.2947 198.631 40.8847 199.025 41.4092C203.876 41.5403 208.728 42.786 213.383 44.0317Z" fill="#F2D0A4"/>
<path d="M216.726 53.0787C221.25 51.6364 226.036 51.702 229.773 51.8986C230.101 51.8986 230.429 51.9642 230.822 51.9642C233.313 52.0953 235.87 52.2265 238.427 51.702C241.64 50.9808 244.393 49.1451 246.95 47.3749C250.949 44.5558 255.08 41.4088 258.161 37.1474C258.817 36.2295 259.341 35.3772 259.866 34.3938C259.407 34.066 258.948 33.8037 258.423 33.5415C257.964 34.4594 257.44 35.3117 256.784 36.164C253.899 40.2287 249.9 43.3101 245.967 45.9981C243.541 47.7027 240.918 49.4073 237.968 50.0629C235.673 50.5874 233.182 50.4563 230.822 50.3252C230.494 50.3252 230.166 50.2596 229.773 50.2596C225.905 50.0629 220.857 49.9974 216.136 51.5053C214.694 51.9642 213.383 52.5543 212.137 53.2099C212.596 53.6032 213.12 53.931 213.645 54.3244C214.628 53.7999 215.677 53.4065 216.726 53.0787Z" fill="#F2D0A4"/>
<path d="M232.133 31.3128C229.052 32.6896 225.184 32.6896 220.332 31.3128C215.546 29.9361 211.023 27.707 207.023 24.7567C206.499 25.0845 206.04 25.4123 205.515 25.7401C209.777 28.9526 214.694 31.444 219.873 32.9519C225.118 34.4598 229.38 34.4598 232.854 32.8863C236.591 31.1817 239.017 27.9692 241.115 24.4945C240.591 24.2322 240.066 24.0356 239.542 23.8389C237.509 26.9858 235.411 29.8705 232.133 31.3128Z" fill="#F2D0A4"/>
<path d="M210.76 22.4619C214.694 24.6254 219.087 26.5267 223.741 26.9856C225.839 27.1823 227.609 27.0512 229.117 26.4611C231.346 25.6744 233.248 23.9698 234.625 21.6751C234.1 21.4785 233.576 21.2162 233.051 21.0195C231.871 22.8552 230.363 24.232 228.593 24.8221C227.347 25.281 225.839 25.4121 223.938 25.2154C219.939 24.8221 216.071 23.2486 212.53 21.4129C211.94 21.8063 211.35 22.1341 210.76 22.4619Z" fill="#F2D0A4"/>
<path d="M237.509 36.0331C230.822 40.4913 221.775 41.0813 214.563 37.541C212.858 36.6887 211.154 35.6397 209.58 34.5908C206.695 32.755 203.745 30.7882 200.27 30.067C199.812 30.526 199.353 31.0505 198.959 31.5749C199.287 31.6405 199.549 31.6405 199.877 31.7061C203.024 32.3617 205.778 34.1318 208.662 35.9675C210.301 37.0165 212.071 38.1311 213.842 39.0489C221.578 42.8515 231.281 42.1959 238.427 37.4099C242.164 34.9186 245.18 31.3783 247.081 27.3135C246.557 27.0512 246.098 26.8545 245.573 26.5923C243.803 30.3948 241.05 33.6729 237.509 36.0331Z" fill="#F2D0A4"/>
<path d="M264.061 91.6291C266.094 85.3352 267.995 79.4347 272.322 74.8454C273.502 73.5998 274.879 72.4852 276.19 71.3707C276.715 70.9118 277.239 70.4528 277.829 69.9939C279.796 68.2893 281.632 66.4536 283.402 64.5523C283.336 63.8311 283.205 63.11 283.074 62.3232C281.173 64.6179 279.009 66.7814 276.715 68.7483C276.19 69.2072 275.666 69.6661 275.141 70.0595C273.764 71.174 272.322 72.3541 271.076 73.6653C266.487 78.5169 264.455 84.8763 262.422 91.1046C262.16 91.9569 261.898 92.8092 261.57 93.6615C262.029 94.1204 262.488 94.5138 262.947 94.9072C263.34 93.7926 263.668 92.7436 264.061 91.6291Z" fill="#F2D0A4"/>
<path d="M272.453 93.4645C272.847 92.8744 273.306 92.2844 273.765 91.6288C273.502 90.0553 273.371 88.4163 273.633 86.8428C274.092 83.6959 275.731 80.7456 277.436 78.0576C279.206 75.2385 281.173 72.4849 283.271 69.928C283.336 69.0102 283.402 68.0923 283.402 67.1089C280.714 70.3214 278.223 73.665 275.994 77.1397C274.158 80.0244 272.388 83.1058 271.929 86.5806C271.667 88.9408 271.929 91.2354 272.453 93.4645Z" fill="#F2D0A4"/>
<path d="M258.489 82.2536C260.915 78.91 263.865 75.9598 266.75 73.0751C268.848 70.9115 271.077 68.748 273.044 66.3878C276.19 62.6508 278.682 58.7172 280.452 54.5868C280.124 53.9312 279.796 53.3412 279.403 52.6855C277.698 57.0126 275.076 61.3396 271.732 65.2733C269.765 67.5679 267.602 69.797 265.504 71.895C262.619 74.8452 259.603 77.861 257.112 81.2702C255.866 82.9748 254.817 84.745 254.031 86.4496C254.49 86.8429 254.883 87.3018 255.342 87.6952C256.129 85.8595 257.178 84.0238 258.489 82.2536Z" fill="#F2D0A4"/>
<path d="M248.065 65.4046C248.851 65.0112 249.704 64.6179 250.49 64.159C255.014 61.9299 259.669 59.6352 263.537 56.2916C267.274 53.0791 270.355 48.8832 272.519 44.0317C272.126 43.6383 271.667 43.2449 271.208 42.8516C269.11 47.7031 266.159 51.8334 262.422 55.0459C258.685 58.2584 254.096 60.4875 249.704 62.7166C248.917 63.11 248.065 63.5033 247.278 63.9623C243.41 65.9291 239.476 68.1582 236.198 71.1084C236.657 71.4362 237.05 71.8296 237.509 72.1574C240.656 69.4038 244.393 67.3059 248.065 65.4046Z" fill="#F2D0A4"/>
<path d="M245.901 78.9756C248.786 76.2876 252.129 73.9929 255.342 71.8294C258.686 69.5348 262.16 67.1746 265.176 64.3554C269.962 59.8973 273.502 54.3246 276.912 48.9486C276.584 48.4896 276.19 48.0307 275.797 47.5718C272.388 53.0134 268.782 58.7172 264.062 63.1754C261.111 65.9289 257.702 68.2891 254.424 70.5182C251.146 72.7473 247.737 75.0419 244.787 77.8611C244.721 77.9266 244.655 77.9922 244.59 78.0577C244.983 78.32 245.442 78.7133 245.901 78.9756C245.836 79.0411 245.836 79.0411 245.901 78.9756Z" fill="#F2D0A4"/>
<path d="M260.581 283.033C259.394 283.307 258.206 284.586 257.476 285.225C256.106 286.413 254.644 287.326 253 288.148C253.548 288.97 254.827 289.427 255.74 289.609C256.745 289.792 257.658 289.609 258.663 289.427C259.12 289.335 259.577 289.153 260.033 288.97C261.403 288.148 263.778 284.768 262.043 283.398C261.586 283.033 261.038 282.942 260.581 283.033Z" fill="#7CA661"/>
<path d="M141.658 3.92763C140.654 3.01423 140.197 1.3701 139.74 0C139.009 0.730722 138.096 1.18743 137 1.27877C137.457 3.28826 138.644 5.11506 140.471 6.02846C140.562 5.38908 141.11 4.38434 141.658 3.92763Z" fill="#AEDC90"/>
<path d="M147.129 159.466L144.754 157C144.754 157 144.389 162.937 139 165.129L141.192 166.773C141.192 166.773 145.759 164.947 147.129 159.466Z" fill="#AEDC90"/>
<path d="M7.93522 226C6.38244 226.913 4.92099 227.735 3.36821 228.649C2.45481 229.197 1.54141 229.654 0.902025 230.476C0.171303 231.298 -0.559422 232.759 0.628001 233.49C1.81542 234.221 4.00759 233.033 5.01234 232.394C6.01708 231.754 7.02182 231.024 7.6612 229.928C8.93996 227.918 7.75254 226.091 7.93522 226Z" fill="#7CA661"/>
<path d="M15.1511 83.8553C15.6078 86.1388 17.252 87.9656 19.2614 89.153C21.1796 90.2491 23.2804 90.4318 25.4726 90.3404C25.5639 90.3404 25.6552 90.3404 25.7466 90.3404C25.7466 90.2491 25.7466 90.1578 25.7466 90.0664C25.5639 87.1435 24.5592 84.4033 22.9151 81.9371C21.3623 79.6536 19.2614 77.8268 17.1606 76C15.6078 78.2835 14.6031 81.2977 15.1511 83.8553Z" fill="#AEDC90"/>
<path d="M15.1511 83.8553C15.6078 86.1388 17.252 87.9656 19.2614 89.153C21.1796 90.2491 23.2804 90.4318 25.4726 90.3404C25.5639 90.3404 25.6552 90.3404 25.7466 90.3404C16.2472 85.0427 17.1606 76 17.1606 76C15.6078 78.2835 14.6031 81.2977 15.1511 83.8553Z" fill="#7CA661"/>
<path d="M17.5257 80.5669C17.9824 82.7591 19.2612 84.9512 20.7226 86.5954C22.0014 88.0568 23.5542 89.4269 25.381 90.3403C25.4723 90.3403 25.5637 90.3403 25.655 90.3403C25.655 90.249 25.655 90.1576 25.655 90.0663C23.9196 89.0615 22.2754 87.9655 20.9967 86.3213C20.2659 85.4079 19.6266 84.4945 19.0785 83.4898C18.5305 82.485 18.2565 81.4803 17.8911 80.4756C17.7998 80.2929 17.5257 80.3842 17.5257 80.5669Z" fill="#39700B"/>
<path d="M311.595 50.8553C311.139 53.1388 309.495 54.9656 307.485 56.153C305.567 57.2491 303.466 57.4318 301.274 57.3404C301.183 57.3404 301.091 57.3404 301 57.3404C301 57.2491 301 57.1578 301 57.0664C301.183 54.1435 302.187 51.4033 303.832 48.9371C305.384 46.6536 307.485 44.8268 309.586 43C311.139 45.2835 312.143 48.2977 311.595 50.8553Z" fill="#AEDC90"/>
<path d="M311.595 50.8553C311.139 53.1388 309.495 54.9656 307.485 56.153C305.567 57.2491 303.466 57.4318 301.274 57.3404C301.183 57.3404 301.091 57.3404 301 57.3404C310.499 52.0427 309.586 43 309.586 43C311.139 45.2835 312.143 48.2977 311.595 50.8553Z" fill="#7CA661"/>
<path d="M309.221 47.5669C308.764 49.7591 307.485 51.9512 306.024 53.5954C304.745 55.0568 303.192 56.4269 301.366 57.3403C301.274 57.3403 301.183 57.3403 301.092 57.3403C301.092 57.249 301.092 57.1576 301.092 57.0663C302.827 56.0615 304.471 54.9655 305.75 53.3213C306.481 52.4079 307.12 51.4945 307.668 50.4898C308.216 49.485 308.49 48.4803 308.855 47.4756C308.947 47.2929 309.221 47.3842 309.221 47.5669Z" fill="#39700B"/>
<path d="M72.9125 291.65C75.3825 288.485 79.9365 287.945 83.1012 290.415C85.8799 292.576 86.6518 296.358 85.1081 299.369L98.5386 304L109.19 261.316C107.724 261.316 106.18 260.852 104.868 259.849C101.858 257.456 101.317 253.134 103.633 250.046C105.717 247.345 109.499 246.65 112.432 248.194L118.067 225.578L100.237 214L89.0446 222.182C89.7393 224.42 89.4305 226.967 87.8868 228.897C85.494 231.985 81.0172 232.602 77.8525 230.286L48.2899 251.822C48.9074 252.053 49.5249 252.362 50.0652 252.748C52.5352 254.678 52.9983 258.305 51.0686 260.852C49.1389 263.322 45.5112 263.786 42.964 261.856C41.4974 260.698 40.7256 259 40.7256 257.302L31 264.403L54.3105 288.64L71.3688 294.506C71.7547 293.58 72.2178 292.576 72.9125 291.65Z" fill="#EBB64A"/>
<path d="M100.391 214.077L89.1989 222.259C89.8936 224.497 89.5848 227.045 88.0411 228.974C85.6483 232.062 81.1714 232.679 78.0068 230.364L48.4442 251.899C49.0617 252.13 49.6792 252.439 50.2195 252.825C52.6895 254.755 53.1526 258.382 51.2229 260.93C49.2932 263.4 45.6654 263.863 43.1183 261.933C41.6517 260.775 40.8799 259.077 40.8799 257.379L31.1543 264.48L54.4648 288.717L118.221 225.578L100.391 214.077Z" fill="#EEC94D"/>
<path d="M76.4632 253.751C74.8423 255.835 71.9092 256.144 69.8252 254.6C67.7411 252.979 67.4324 250.046 68.9761 247.962C70.597 245.878 73.5301 245.569 75.6142 247.113C77.6982 248.734 78.0842 251.744 76.4632 253.751Z" fill="#EBB64A"/>
<path d="M107.415 228.974C106.412 230.287 104.482 230.518 103.17 229.515C101.858 228.511 101.626 226.582 102.63 225.269C103.633 223.957 105.563 223.726 106.875 224.729C108.187 225.733 108.419 227.662 107.415 228.974Z" fill="#EBB64A"/>
<path d="M63.5729 274.823C61.7976 277.062 58.5558 277.448 56.3174 275.749C54.0789 273.974 53.693 270.732 55.3911 268.494C57.1664 266.255 60.4083 265.87 62.6467 267.568C64.9623 269.343 65.3482 272.585 63.5729 274.823Z" fill="#EBB64A"/>
<path d="M96.3774 280.844C94.9108 282.773 92.1321 283.082 90.2024 281.616C88.2727 280.149 87.964 277.37 89.4305 275.441C90.8971 273.511 93.6758 273.202 95.6055 274.669C97.5352 276.135 97.8439 278.914 96.3774 280.844Z" fill="#CC9431"/>
<path d="M217.761 249.391C217.761 249.391 193.184 269.829 187.751 269.829C182.318 269.829 178.524 261.291 172.573 268.449C166.537 275.606 179.817 280.522 179.817 280.522C179.817 280.522 176.626 290.008 183.353 293.285C190.079 296.562 190.769 287.938 192.494 280.436C194.132 272.933 226.557 259.825 226.557 259.825L217.761 249.391Z" fill="#F2D0A4"/>
<path d="M297.185 231.453C308.827 210.929 289.768 186.007 266.916 191.871C266.571 191.957 266.312 192.043 265.967 192.13C248.375 197.304 211.725 247.062 212.759 251.46C214.398 258.532 221.814 250.598 218.968 256.634C216.123 262.671 213.018 266.896 228.541 263.706C244.149 260.515 289.079 244.82 296.754 232.143C296.926 231.885 297.099 231.626 297.185 231.453Z" fill="#C89059"/>
<path d="M253.722 215.5C270.107 200.236 282.783 196.786 289.424 196.269C283.387 191.785 275.453 189.715 266.916 191.871C266.571 191.957 266.312 192.043 265.967 192.13C248.375 197.304 211.725 247.062 212.759 251.46C214.398 258.532 221.814 250.598 218.968 256.634C216.123 262.671 213.018 266.896 228.541 263.706C230.869 263.188 233.887 262.412 237.337 261.464C235.957 251.719 235.871 232.143 253.722 215.5Z" fill="#BA7F4A"/>
<path d="M262.259 220.329C261.397 220.846 260.189 220.587 259.672 219.725C259.155 218.863 259.413 217.655 260.276 217.138C261.138 216.621 262.345 216.879 262.863 217.742C263.38 218.604 263.121 219.811 262.259 220.329Z" fill="#BA7F4A"/>
<path d="M254.584 230.246C253.549 230.85 252.256 230.591 251.566 229.556C250.962 228.521 251.221 227.228 252.256 226.538C253.291 225.934 254.584 226.193 255.274 227.228C255.964 228.263 255.619 229.556 254.584 230.246Z" fill="#BA7F4A"/>
<path d="M248.892 241.543C247.858 242.147 246.564 241.888 245.874 240.853C245.271 239.818 245.529 238.525 246.564 237.835C247.599 237.231 248.892 237.49 249.582 238.525C250.272 239.56 249.841 240.853 248.892 241.543Z" fill="#BA7F4A"/>
<path d="M258.723 237.921C257.947 238.438 256.912 238.18 256.481 237.403C255.964 236.627 256.222 235.592 256.999 235.161C257.775 234.644 258.809 234.903 259.241 235.679C259.758 236.455 259.499 237.403 258.723 237.921Z" fill="#BA7F4A"/>
<path d="M272.694 215.068C271.918 215.586 270.883 215.327 270.452 214.551C269.934 213.775 270.193 212.74 270.969 212.309C271.745 211.791 272.78 212.05 273.211 212.826C273.729 213.602 273.47 214.637 272.694 215.068Z" fill="#BA7F4A"/>
<path d="M198.9 176.8C212.1 176.8 222.8 166.1 222.8 152.9C222.8 139.7 212.1 129 198.9 129C185.7 129 175 139.7 175 152.9C175 166.1 185.7 176.8 198.9 176.8Z" fill="#EBB64A"/>
<path d="M198.9 174.468C210.812 174.468 220.468 164.812 220.468 152.9C220.468 140.988 210.812 131.332 198.9 131.332C186.988 131.332 177.332 140.988 177.332 152.9C177.332 164.812 186.988 174.468 198.9 174.468Z" fill="white"/>
<path d="M179.664 152.252H194.237C195.338 152.252 195.921 150.892 195.143 150.115L184.845 139.752C184.327 139.234 183.42 139.298 182.967 139.817C180.441 142.861 178.822 146.682 178.433 150.827C178.368 151.605 178.951 152.252 179.664 152.252Z" fill="#EEC94D"/>
<path d="M194.301 153.483H179.663C178.886 153.483 178.303 154.131 178.433 154.908C178.821 159.053 180.505 162.875 182.967 165.919C183.42 166.502 184.327 166.566 184.845 165.983L195.143 155.685C195.985 154.843 195.403 153.483 194.301 153.483Z" fill="#EEC94D"/>
<path d="M196.827 132.433C192.682 132.821 188.861 134.505 185.817 136.967C185.234 137.42 185.169 138.327 185.752 138.845L196.05 149.143C196.827 149.92 198.188 149.402 198.188 148.236V133.663C198.252 132.951 197.605 132.368 196.827 132.433Z" fill="#EEC94D"/>
<path d="M201.685 149.208L211.983 138.91C212.502 138.392 212.437 137.485 211.919 137.031C208.874 134.505 205.053 132.886 200.908 132.498C200.131 132.433 199.483 133.016 199.483 133.728V148.301C199.483 149.402 200.843 149.985 201.685 149.208Z" fill="#EEC94D"/>
<path d="M203.434 152.252H218.007C218.784 152.252 219.367 151.605 219.238 150.827C218.849 146.682 217.165 142.861 214.704 139.817C214.25 139.234 213.344 139.169 212.825 139.752L202.527 150.05C201.75 150.892 202.333 152.252 203.434 152.252Z" fill="#EEC94D"/>
<path d="M218.072 153.483H203.499C202.398 153.483 201.815 154.843 202.592 155.62L212.89 165.919C213.409 166.437 214.315 166.372 214.769 165.854C217.295 162.81 218.914 158.988 219.303 154.843C219.367 154.131 218.784 153.483 218.072 153.483Z" fill="#EEC94D"/>
<path d="M196.115 156.527L185.816 166.825C185.298 167.343 185.363 168.25 185.881 168.704C188.925 171.23 192.747 172.849 196.892 173.237C197.669 173.302 198.317 172.719 198.317 172.007V157.434C198.252 156.333 196.892 155.75 196.115 156.527Z" fill="#EEC94D"/>
<path d="M201.685 156.527C200.908 155.75 199.548 156.268 199.548 157.434V172.007C199.548 172.784 200.196 173.367 200.973 173.237C205.118 172.849 208.939 171.165 211.984 168.703C212.567 168.25 212.631 167.343 212.048 166.825L201.685 156.527Z" fill="#EEC94D"/>
<path d="M75.1229 158.239C75.1229 158.239 78.2007 159.383 79.9594 157.238C81.7182 155.093 84.3563 149.016 90.292 147.014C91.8309 146.514 93.15 146.085 94.3225 145.727C96.8873 144.941 98.9392 143.01 99.8185 140.508C100.771 137.934 102.823 134.645 107.293 132.643C115.427 129.069 115.281 126.066 116.233 123.492C117.186 120.918 123.561 128.783 122.169 139.15C120.777 149.516 110.591 156.451 110.591 156.451C110.591 156.451 106.267 161.885 96.7407 164.53C87.2875 167.176 82.964 161.671 81.2785 160.813C79.6663 159.955 76.6618 162.457 75.1962 161.17C73.8771 159.955 75.1229 158.239 75.1229 158.239Z" fill="#D4E86D"/>
<path d="M122.169 139.221C123.562 128.854 117.186 120.918 116.234 123.563C115.647 125.208 115.501 126.995 113.376 128.997C114.548 130.928 115.721 134.002 115.574 138.721C115.281 148.158 106.341 146.943 103.483 150.088C100.625 153.234 101.138 160.741 91.3913 161.456C85.6022 161.885 82.2313 159.097 80.4725 156.594C80.2527 156.88 80.1061 157.095 79.9595 157.309C78.2008 159.454 75.123 158.31 75.123 158.31C75.123 158.31 73.8773 159.955 75.2696 161.242C76.6619 162.529 79.6664 160.026 81.3519 160.884C82.9641 161.742 87.2876 167.247 96.8141 164.602C106.267 161.957 110.664 156.523 110.664 156.523C110.664 156.523 120.704 149.588 122.169 139.221Z" fill="#B5CD5A"/>
<path d="M210.055 101C207.315 101 207.315 105.293 210.055 105.293C212.795 105.202 212.795 101 210.055 101Z" fill="#FFF1CE"/>
<path d="M160.016 250.011H159.925C159.377 250.103 158.92 250.742 159.012 251.29C159.012 251.838 159.377 252.478 159.925 252.569H160.016C160.839 252.752 161.661 252.204 161.661 251.29C161.661 250.377 160.839 249.92 160.016 250.011Z" fill="#FFF1CE"/>
<path d="M134.85 87C132.383 87 132.383 90.8363 134.85 90.8363C137.316 90.8363 137.316 87 134.85 87Z" fill="#FFF1CE"/>
<path d="M68.3641 184.675C68.3641 184.675 71.5152 185.533 73.0541 183.245C74.593 180.957 76.7181 174.666 82.434 172.163C83.8996 171.52 85.2187 170.948 86.3179 170.519C88.8094 169.446 90.7147 167.373 91.3743 164.871C92.0338 162.225 93.7925 158.794 98.0428 156.434C105.884 152.144 105.371 149.213 106.104 146.568C106.836 143.922 113.871 151.215 113.432 161.653C112.992 172.092 103.466 179.885 103.466 179.885C103.466 179.885 99.655 185.676 90.4216 189.108C81.1882 192.539 76.425 187.463 74.7395 186.748C73.0541 186.033 70.2694 188.75 68.7305 187.606C67.3382 186.462 68.3641 184.675 68.3641 184.675Z" fill="#D4E86D"/>
<path d="M113.505 161.653C113.945 151.215 106.837 143.851 106.177 146.568C105.737 148.284 105.737 150.071 103.832 152.287C105.224 154.075 106.617 157.077 106.91 161.796C107.423 171.234 98.4825 170.805 95.9177 174.165C93.3529 177.525 94.5254 184.961 84.9256 186.534C79.1364 187.463 75.6189 184.961 73.6404 182.601C73.4938 182.887 73.3472 183.173 73.2007 183.388C71.6618 185.676 68.5107 184.818 68.5107 184.818C68.5107 184.818 67.4848 186.605 68.9504 187.749C70.4893 188.893 73.274 186.176 74.9594 186.891C76.6449 187.606 81.4814 192.682 90.6415 189.25C99.8749 185.819 103.685 180.028 103.685 180.028C103.685 180.028 113.065 172.092 113.505 161.653Z" fill="#B5CD5A"/>
</svg>
